inDegrees=no
num_controls=7
num_derivatives=13
num_iterations=57
num_multipliers=7
num_parameters=0
num_slacks=7
num_states=26
objective=0.445313
objective_accelerations=0.056534
objective_balance=0.002321
objective_effort=0.021753
objective_height=0.359290
objective_ligament=0.005415
solver_duration=825.923448
status=Solve_Succeeded
success=true
DataType=double
version=3
OpenSimVersion=4.5
endheader
time	/jointset/ground_pelvis/pelvis_tilt/value	/jointset/ground_pelvis/pelvis_tx/value	/jointset/ground_pelvis/pelvis_ty/value	/jointset/hip_l/hip_flexion_l/value	/jointset/hip_l/hip_adduction_l/value	/jointset/hip_l/hip_rotation_l/value	/jointset/back/lumbar_extension/value	/jointset/patellofemoral_l/patellar_flexion_l/value	/jointset/knee_l/knee_flexion_l/value	/jointset/knee_l/knee_adduction_l/value	/jointset/knee_l/knee_rotation_l/value	/jointset/ankle_l/ankle_angle_l/value	/jointset/subtalar_l/subtalar_angle_l/value	/jointset/ground_pelvis/pelvis_tilt/speed	/jointset/ground_pelvis/pelvis_tx/speed	/jointset/ground_pelvis/pelvis_ty/speed	/jointset/hip_l/hip_flexion_l/speed	/jointset/hip_l/hip_adduction_l/speed	/jointset/hip_l/hip_rotation_l/speed	/jointset/back/lumbar_extension/speed	/jointset/patellofemoral_l/patellar_flexion_l/speed	/jointset/knee_l/knee_flexion_l/speed	/jointset/knee_l/knee_adduction_l/speed	/jointset/knee_l/knee_rotation_l/speed	/jointset/ankle_l/ankle_angle_l/speed	/jointset/subtalar_l/subtalar_angle_l/speed	/forceset/tau_hip_flexion_l	/forceset/tau_hip_adduction_l	/forceset/tau_hip_rotation_l	/forceset/tau_knee_flexion_l	/forceset/tau_ankle_angle_l	/forceset/tau_subtalar_angle_l	/forceset/tau_lumbar_extension	lambda_cid13_p0	lambda_cid13_p1	lambda_cid13_p2	lambda_cid13_p3	lambda_cid13_p4	lambda_cid13_p5	lambda_cid14_p0	/jointset/ground_pelvis/pelvis_tilt/accel	/jointset/ground_pelvis/pelvis_tx/accel	/jointset/ground_pelvis/pelvis_ty/accel	/jointset/hip_l/hip_flexion_l/accel	/jointset/hip_l/hip_adduction_l/accel	/jointset/hip_l/hip_rotation_l/accel	/jointset/back/lumbar_extension/accel	/jointset/patellofemoral_l/patellar_flexion_l/accel	/jointset/knee_l/knee_flexion_l/accel	/jointset/knee_l/knee_adduction_l/accel	/jointset/knee_l/knee_rotation_l/accel	/jointset/ankle_l/ankle_angle_l/accel	/jointset/subtalar_l/subtalar_angle_l/accel	gamma_cid13_p0	gamma_cid13_p1	gamma_cid13_p2	gamma_cid13_p3	gamma_cid13_p4	gamma_cid13_p5	gamma_cid14_p0
1.5	-0.3043331533516522	0.01547608802264758	0.7654951833917192	1.016064374311695	-0.4402053354807012	-0.2109526744290775	-0.215105663188968	0.8597025434252425	0.8597025434252005	-0.1108010429467393	-0.1501793611560847	0.2155692246277043	0.02579193171448212	0.5038975008651801	0.1865197188263487	0.5231415481905518	-2.214225427629901	0.2193262203498637	-0.7347084664774681	0.3311458639437831	-2.140456991266581	-2.1404569912666	-0.186158084980109	0.1126692446737235	-0.6176620242499092	-0.09012166374280405	-0.1441998315275881	0.07081056425749048	-0.01150288973703301	-0.2195254087322545	0.01935699916273567	0.009536728914152236	0.1473817362295923	-26.35228845819129	-1.279073158354463	1.868483801095973	-3.882842486288866	-520.4978381516161	-32.84949542653538	-22.4077389518432	0.6632516488101718	0.5702588610296644	-0.5117492921592491	-1.347000579277795	0.6205404312204484	0.1166476789887232	1.192556103451893	-1.523328429750005	-1.523328429749966	-0.3223423330702777	0.4505645674684301	-0.6853202953940898	0.3809610192568156	6.292607586844972e-07	-3.085266885706074e-07	-4.79230613324307e-06	-3.737342961460915e-07	9.430618071378576e-07	2.714075750958338e-07	5.543599970436853e-07
1.51	-0.2992617544448167	0.01736942640076536	0.770699933004126	0.9938575715401017	-0.4379814419772443	-0.2182964241360729	-0.2117357681516227	0.8382241819149646	0.8382241819149591	-0.1126768106491766	-0.1490326919610129	0.2093586645343171	0.02490937855409724	0.5102290206755064	0.1921031030826719	0.5176929087382131	-2.226682852762766	0.2255579779777633	-0.7346667582724361	0.3427924628270217	-2.154891564657687	-2.154891564657532	-0.1882434283185537	0.1162687854084336	-0.624352874599059	-0.08619583477655349	-0.1384354248668654	0.06958036282056916	-0.01147908804439223	-0.2168966928681544	0.02149218981524792	0.009017719222463881	0.1425404696925027	-25.48730454236488	-1.287693682307228	1.964178067230504	-4.001334971088366	-516.6893614069795	-33.0928806108446	-23.40649679827015	0.595208088385585	0.545590818486985	-0.5785432890238159	-1.127158160025599	0.640932828007047	-0.1453591777148139	1.14460967497358	-1.355061300329777	-1.355061300303607	-0.03900193426938579	0.2544533324314081	-0.6464230534050457	0.4278842199007145	6.418976122445082e-07	-1.707929698159931e-07	-4.468659941892352e-06	-3.228726306424382e-07	9.734319185815368e-07	5.029215088224899e-07	5.231861094555076e-07
1.52	-0.2941316191516957	0.01931724114355412	0.7758467718185577	0.9715397855811148	-0.4356919430176436	-0.2256584150747878	-0.2082506275466339	0.8166111667694932	0.8166111667695308	-0.1145509061050217	-0.1478620664573332	0.2030841048076894	0.02407198176029156	0.5156447781356952	0.1974149917605446	0.5115593885956033	-2.236422065085057	0.2324473115829628	-0.7383567128264059	0.3541949774789612	-2.167387718310354	-2.167387718310025	-0.1858236356585233	0.1174605063815198	-0.630461950897382	-0.08109039042664802	-0.1326710182068406	0.06835016138357281	-0.01145528635234084	-0.2142679770040784	0.02362738046779522	0.008498709530712184	0.1376992031547654	-24.62428080614024	-1.296720062988067	2.060791593088504	-4.169334070566808	-512.9322034399935	-33.41088842533453	-24.40508526287646	0.4800991787817986	0.5159597453402479	-0.6487254302133482	-0.8033580171633615	0.7520556266802255	-0.6296848728118609	1.143739257191385	-1.135644482062272	-1.135644482062265	0.5786848666245267	-0.03099938485648823	-0.5689654852278669	0.6168840959881429	6.515537214667591e-07	-3.360750815309175e-08	-4.343371617935209e-06	-2.847562651446144e-07	9.828783194953126e-07	6.462915336944531e-07	5.189802487348765e-07
1.53	-0.2889506334858494	0.02131703459605463	0.7809289207342197	0.9491362642797181	-0.4333320908402936	-0.233063633885043	-0.2046527766408567	0.7948828792513651	0.7948828792513993	-0.1163905334957415	-0.1466852215992771	0.1967515401109957	0.0232890574677811	0.5205279148710087	0.2025212293625322	0.5047623323140076	-2.24403186182154	0.239435928455264	-0.7420871452842611	0.3653242164824227	-2.177958586195296	-2.177958586195067	-0.1825292959688173	0.1182010252753111	-0.6359381861034206	-0.07555969196779423	-0.1281737640131403	0.06749646194732116	-0.01111560367367236	-0.2102249785229595	0.02411631401088045	0.007922568592363155	0.1338994535971371	-24.29419370491662	-1.188170487606796	2.139285476173747	-4.043510415686207	-509.3361466240688	-33.4613333519934	-25.40207818522733	0.4888405184660153	0.5045359582479053	-0.7112124105647444	-0.7021365109365526	0.6597756996630343	-0.1541637560960684	1.089868141588995	-0.9712393786426973	-0.9712393786576509	0.14054402796818	0.1696025762484898	-0.5200526616670975	0.5118766072194213	6.580427898301398e-07	1.029954303498646e-07	-4.428838528083734e-06	-2.601817809029843e-07	9.700932779710664e-07	6.960086554083058e-07	5.434279165610135e-07
1.54	-0.283721532533217	0.02336720646269573	0.7859398957503779	0.9266641758090408	-0.4309048502978114	-0.2404880452845769	-0.2009451629611407	0.7730581967670773	0.7730581967670243	-0.1182100703881633	-0.1454923665420964	0.1903675930375651	0.02255958293713457	0.5252678355088916	0.2074906745886623	0.497324608694961	-2.250135498919912	0.2459249846138458	-0.7421952306950286	0.3761475322726622	-2.186666711557544	-2.186666711557415	-0.1818055359661152	0.120662546159166	-0.6407384262444565	-0.07040043805352247	-0.1236765098198596	0.06664276251118656	-0.01077592099723346	-0.2061819800417048	0.02460524755406662	0.007346427654259123	0.1300997040390328	-23.96516654103906	-1.081079533388287	2.21989598044168	-3.970990566372033	-505.7796466818368	-33.58237414912809	-26.39641461816427	0.4514559592946313	0.4886012701695471	-0.7768588977034434	-0.5021260895411884	0.6521434839362252	0.09478453660548408	1.082554614546207	-0.7630959775236984	-0.7630959775236872	0.06456892922348585	0.3132010131560653	-0.433766472226315	0.5425951870721287	6.725520788671134e-07	3.137439628422937e-07	-4.332485116170271e-06	-2.135311902917173e-07	9.780051246578771e-07	8.120900643771965e-07	5.545159167936772e-07
1.55	-0.2784466042945145	0.02546607390279102	0.7908734151051009	0.9041396197555837	-0.4284144509435236	-0.2479034215946443	-0.1971314686681482	0.7511554928024773	0.7511554928023915	-0.1200282172109288	-0.1442707584818476	0.1839386050321001	0.02188073932996877	0.5295903122880207	0.2122266912454348	0.4892796565565326	-2.254374246756988	0.2521601636178711	-0.7409493371734509	0.3864961491250838	-2.193559794338326	-2.193559794338331	-0.1816350991437589	0.1235520776317024	-0.6449760587441795	-0.06532291905627075	-0.1179651815701303	0.0649462318844214	-0.01053102552378586	-0.203792914386458	0.02660315630675461	0.006556027270629495	0.1252572717143834	-23.18559591689777	-0.9393519304077077	2.27159819535723	-3.91369719237262	-502.4123195487994	-33.82727526907053	-27.38768226955188	0.4035915173817009	0.457663258740388	-0.8330487442881622	-0.324438468028412	0.6104468217585592	0.1296474253842528	0.9967386392000286	-0.6053809385330354	-0.6053809385529678	0.02153284419320192	0.2600450570513724	-0.4062731324505431	0.4974622843427481	6.96302056941052e-07	6.099211144965019e-07	-4.026643072315833e-06	-1.414450858197831e-07	1.009763386022643e-06	1.004634673879061e-06	5.502112565382092e-07
1.56	-0.2731322616920673	0.02761061378851293	0.7957235378639629	0.8815847383561825	-0.4258614514565962	-0.2553083078363785	-0.1932171435229439	0.7291932647079894	0.7291932647079934	-0.1218390093082314	-0.1430236119384638	0.177469738402913	0.02125409731843174	0.5331507082737797	0.2166251637139857	0.4806452895228524	-2.256200568083573	0.2584450111468292	-0.7400972170338724	0.3962737027220697	-2.19857153752622	-2.198571537526358	-0.1803345909033692	0.1257702428142261	-0.648714150988103	-0.05996011892738373	-0.1122538533211378	0.06324970125756861	-0.01028613004926986	-0.2014038487313664	0.02860106505945013	0.005765626886880217	0.1204148393890635	-22.4048315554002	-0.7986293957461934	2.324371604610055	-3.913800283661702	-499.0533696157154	-34.13744910358129	-28.37660259144766	0.2990398006194394	0.4210924325261363	-0.8947418767537353	-0.01964078744286057	0.662077188922472	0.01602986020542732	0.9683419634582338	-0.3868280589460256	-0.3868280589460253	0.2905832128299281	0.1789277551534054	-0.3338584210653233	0.5996514133996504	6.22021201946743e-07	1.162113630699515e-06	-2.986580238652469e-06	2.554281564458235e-08	8.876869609539297e-07	1.05483405445164e-06	4.909863870584941e-07
1.57	-0.2677861108453516	0.02979746475050611	0.8004843962490157	0.8590243612340405	-0.4232444800779409	-0.262713760802079	-0.1892075013265165	0.7071917421168427	0.7071917421170492	-0.123624768751383	-0.1417627421872239	0.1709668628100752	0.02068425329909706	0.5359699356148203	0.2206910162453527	0.4714320417383693	-2.255447865772684	0.2649749562843052	-0.7412543778817299	0.4055836779974086	-2.201318504969666	-2.201318504969764	-0.1764736286535643	0.1261015316574085	-0.6517165007961163	-0.05390072432234245	-0.1070789589355737	0.06168870479163666	-0.01000401458319852	-0.1985252037985693	0.02994141295887278	0.004951462716703228	0.1160116287199614	-21.84635968527222	-0.609782882646846	2.370750506504908	-3.81911273228416	-495.9256801480935	-34.37532063513567	-29.3648098035349	0.256894177386157	0.3913249211806858	-0.9486896281739523	0.1867348065833751	0.6520069576400758	-0.2205101698423992	0.9016665230694303	-0.1565176281801437	-0.1565176281738811	0.4858136319427293	-0.08511170394087811	-0.2616322541356236	0.6248587827032863	4.252018056171259e-07	2.03432535258853e-06	-1.028741417727953e-06	3.111579633494858e-07	5.733171778433689e-07	9.271018988626121e-07	3.631112560484707e-07
1.58	-0.2624150617300207	0.03202337288935692	0.8051503074764463	0.8364843129481637	-0.4205614984916431	-0.2701385695986656	-0.1851068911346602	0.6851751725432521	0.6851751725433152	-0.12536152639242	-0.1405076277774107	0.1644383219204639	0.02017815828554035	0.5381303620176132	0.2244365990855132	0.4616558579985034	-2.252134800812741	0.2716470526808842	-0.7439683832319518	0.4144673018128336	-2.201580934058571	-2.201580934058629	-0.1705342303682294	0.1246191743869108	-0.6538472103427719	-0.04721031777141524	-0.1019040645499589	0.06012770832606835	-0.009721899122347156	-0.1956465588653157	0.0312817608584879	0.004137298547172976	0.1116084180506986	-21.28738125892036	-0.4222352512195012	2.418716645533963	-3.753822451463066	-492.8071027666605	-34.6320209921647	-30.35088414671776	0.167279612968491	0.3570384942859212	-1.007329067830196	0.4924317423680201	0.6905074407431144	-0.2953390402676492	0.8830716714744389	0.1100796119619323	0.1100796119619251	0.7062704199355466	-0.1838014675827951	-0.159530368792511	0.7258538025773402	3.417062775862831e-07	2.580211069405729e-06	-2.649691568552314e-07	4.733583710370433e-07	4.019263756929488e-07	9.138245344598605e-07	3.358723941690233e-07
1.59	-0.257024872022081	0.03428529010921633	0.8097158051890826	0.8139878800901168	-0.4178136313329686	-0.2775805809274333	-0.1809201941781454	0.6631667476044698	0.6631667476044775	-0.1270444214633513	-0.1392643585748621	0.1578921634052201	0.01973828394410997	0.539892790736291	0.227907387235478	0.4513710419692897	-2.246981357134807	0.277722917168081	-0.7430618121648027	0.4227210102021379	-2.199895269861947	-2.199895269861837	-0.1670483919724035	0.1249629627023894	-0.6553139210424918	-0.04100492996077468	-0.09686235351529375	0.05808751242464527	-0.009325997814262146	-0.193135176292238	0.03294043223728427	0.003283578479170701	0.1073593142992865	-20.6548339631106	-0.2265771969736023	2.461031649192229	-3.707105974205704	-490.1103140957031	-34.8770639036052	-31.3170146076257	0.1784821235633476	0.3362733137660588	-1.049866638528065	0.5523410909843358	0.5354939453196256	0.4899436753588735	0.7738585278294906	0.2290253249626822	0.2290253249879307	0.01956447405319262	0.2823580774292017	-0.1295584560811439	0.5315786995849391	4.120074279609113e-07	2.683225779339773e-06	-1.121715798909856e-06	4.680673458439264e-07	4.245784762741375e-07	1.055878672381333e-06	4.452113261096357e-07
